<svg width="24" height="24" viewBox="0 0 24 24" fill="none" xmlns="http://www.w3.org/2000/svg">
<g clip-path="url(#clip0_50_535)">
<rect x="2.625" y="2.625" width="18.75" height="18.75" fill="#8CF287"/>
<path d="M20.7497 0.750018H3.25033C2.92164 0.748778 2.59595 0.812605 2.29204 0.937818C1.98813 1.06303 1.712 1.24716 1.47958 1.47958C1.24716 1.712 1.06303 1.98813 0.937818 2.29204C0.812605 2.59595 0.748778 2.92164 0.750018 3.25033V20.7497C0.750018 21.4128 1.01344 22.0488 1.48234 22.5177C1.95124 22.9866 2.58721 23.25 3.25033 23.25H20.7497C21.4128 23.25 22.0488 22.9866 22.5177 22.5177C22.9866 22.0488 23.25 21.4128 23.25 20.7497V3.25033C23.25 2.58721 22.9866 1.95124 22.5177 1.48234C22.0488 1.01344 21.4128 0.750018 20.7497 0.750018ZM18.4106 6.58127C18.3194 6.88905 18.268 7.20728 18.2578 7.52814C18.2578 7.69439 18.2397 7.95377 18.2035 8.30627C18.182 8.53037 18.1695 8.75523 18.166 8.98033C18.166 9.52783 18.1369 10.3331 18.0797 11.371C18.0335 12.1541 18.006 12.936 17.9972 13.7166C17.9972 14.1028 18.0272 14.7075 18.0881 15.5072C18.151 16.3181 18.1819 16.9453 18.1819 17.371C18.1847 17.5806 18.1441 17.7885 18.0626 17.9816C17.9811 18.1747 17.8605 18.3489 17.7085 18.4931C17.5577 18.6421 17.378 18.7584 17.1805 18.835C16.9829 18.9116 16.7717 18.9468 16.56 18.9385C16.1352 18.9338 15.7258 18.779 15.4041 18.5016C15.2391 18.3667 15.1068 18.1963 15.0168 18.0032C14.9269 17.81 14.8817 17.599 14.8847 17.386C14.8847 16.9835 14.866 16.3791 14.8285 15.5728C14.7991 14.9541 14.7816 14.3356 14.776 13.7175C14.776 13.5938 14.7769 13.4763 14.7788 13.365C14.0241 13.426 13.1231 13.5506 12.091 13.7381C11.1397 13.9113 10.1881 14.0869 9.23627 14.265C9.21627 14.6463 9.18189 15.1619 9.13314 15.8119C9.08475 16.4411 9.05754 17.0718 9.05158 17.7028C9.05361 17.9117 9.01253 18.1188 8.93091 18.311C8.84929 18.5033 8.72888 18.6767 8.57721 18.8203C8.26793 19.1134 7.85573 19.2731 7.42971 19.2647L7.38471 19.2656C6.97917 19.2594 6.59127 19.0988 6.30002 18.8166C6.14809 18.6718 6.02783 18.497 5.94683 18.3034C5.86583 18.1098 5.82584 17.9014 5.82939 17.6916C5.82939 17.115 5.87627 16.2731 5.97471 15.1247C6.07221 14.0166 6.12189 13.1775 6.12189 12.63C6.12189 11.9113 6.13971 10.83 6.17533 9.38627C6.20908 7.94752 6.22564 6.87189 6.22502 6.15939C6.22271 5.94975 6.26383 5.7419 6.3458 5.54893C6.42776 5.35595 6.54879 5.18204 6.70127 5.03814C6.85239 4.89041 7.0317 4.7746 7.22852 4.69761C7.42534 4.62062 7.63564 4.58403 7.84689 4.59002C8.26899 4.58557 8.6756 4.74876 8.97752 5.04377C9.12749 5.18801 9.24642 5.36137 9.32703 5.5532C9.40763 5.74504 9.44821 5.95132 9.44627 6.15939C9.44627 6.58877 9.42908 7.23564 9.3947 8.10002C9.3722 8.73127 9.35846 9.36346 9.35346 9.99658C9.35408 10.1403 9.33377 10.4231 9.29252 10.845C9.28423 10.9233 9.27736 11.0018 9.27189 11.0803L11.9203 10.5816C12.8771 10.4046 13.843 10.281 14.8135 10.2113C14.8366 9.69252 14.8663 8.83002 14.9025 7.62377C14.9394 7.04519 15.0878 6.47919 15.3394 5.95689C15.7341 5.08877 16.2366 4.64908 16.831 4.64908C17.2329 4.64623 17.6218 4.79101 17.9241 5.05596L17.9269 5.05783C18.095 5.1985 18.2298 5.37474 18.3216 5.57382C18.4133 5.77291 18.4598 5.98988 18.4575 6.20908C18.4586 6.33468 18.4428 6.45986 18.4106 6.58127Z" fill="#448E3A"/>
</g>
<defs>
<clipPath id="clip0_50_535">
<rect width="24" height="24" fill="white"/>
</clipPath>
</defs>
</svg>
