<svg width="24" height="24" viewBox="0 0 24 24" fill="none" xmlns="http://www.w3.org/2000/svg">
<g clip-path="url(#clip0_50_461)">
<path d="M9.41533 13.0765C9.50261 11.4797 10.2649 10.0731 11.415 9.07588C12.5428 8.09646 14.0608 7.4978 15.7172 7.4978C17.3719 7.4978 18.89 8.09646 20.0186 9.07588C21.1678 10.073 21.9302 11.4797 22.0183 13.0747C22.1055 14.7153 21.4626 16.2393 20.3348 17.3691C19.1847 18.5182 17.5489 19.2392 15.7172 19.2392C13.8855 19.2392 12.2465 18.5182 11.0972 17.3691C9.96855 16.2392 9.3272 14.7152 9.41533 13.0765Z" fill="white"/>
<path d="M12.4845 13.2188C12.5292 12.3996 12.9205 11.6778 13.5105 11.1662C14.0892 10.6637 14.8681 10.3564 15.7181 10.3564C16.5671 10.3564 17.346 10.6637 17.9251 11.1662C18.5148 11.6778 18.9059 12.3996 18.9511 13.2181C18.9959 14.0598 18.6661 14.8418 18.0873 15.4214C17.4972 16.0111 16.6579 16.3811 15.7181 16.3811C14.7782 16.3811 13.9372 16.0111 13.3475 15.4214C12.7684 14.8418 12.4393 14.0598 12.4845 13.2188Z" fill="#265787"/>
<path d="M7.3509 14.9019C7.35652 15.2231 7.45637 15.8475 7.60627 16.335C7.92118 17.367 8.45537 18.3218 9.19871 19.1632C9.96156 20.0281 10.9008 20.7228 11.9859 21.216C13.1263 21.7339 14.3619 21.9979 15.6453 21.9958C16.9267 21.9939 18.1624 21.7248 19.3028 21.2029C20.3878 20.7049 21.3262 20.0072 22.0878 19.1419C22.8307 18.297 23.3641 17.3406 23.6799 16.3086C23.8386 15.7871 23.9389 15.2579 23.9791 14.7268C24.0185 14.203 24.0019 13.6762 23.9296 13.1561C23.7883 12.1358 23.444 11.1785 22.9141 10.3058C22.4294 9.50385 21.8046 8.80183 21.0616 8.21087L21.0633 8.20962L13.5661 2.30529C13.5593 2.3001 13.5538 2.29452 13.5466 2.28971C13.0547 1.90241 12.2275 1.90375 11.6866 2.29183C11.1396 2.68433 11.077 3.33346 11.5637 3.74279L11.5617 3.745L14.6887 6.35308L5.15781 6.36346H5.14506C4.35727 6.36442 3.60006 6.89452 3.45006 7.56442C3.29602 8.24692 3.83115 8.81308 4.65024 8.81615L4.64893 8.81914L9.47987 8.80952L0.859368 15.5962C0.848399 15.6044 0.836493 15.6131 0.826368 15.6213C0.0131803 16.26 -0.249695 17.322 0.262461 17.994C0.782305 18.6775 1.88762 18.6788 2.70924 17.998L7.41399 14.0488C7.41399 14.0488 7.34537 14.5819 7.3509 14.9019ZM19.4404 16.6871C18.4711 17.7001 17.1138 18.2744 15.6454 18.2775C14.1748 18.2801 12.8176 17.7109 11.8483 16.6997C11.3746 16.2069 11.0266 15.6399 10.812 15.036C10.6009 14.4416 10.5197 13.807 10.5741 13.1769C10.6253 12.5556 10.8057 11.963 11.0935 11.4267C11.3762 10.8997 11.7657 10.4234 12.2466 10.0205C13.1888 9.23298 14.3885 8.80654 15.6432 8.80481C16.8992 8.80308 18.098 9.22558 19.0412 10.0106C19.5212 10.4116 19.9103 10.8863 20.1931 11.4125C20.4846 11.9516 20.6623 12.5476 20.7146 13.1617C20.7682 13.7914 20.6867 14.4255 20.4758 15.0194C20.2607 15.6252 19.9141 16.1922 19.4404 16.6871Z" fill="#EA7600"/>
</g>
<defs>
<clipPath id="clip0_50_461">
<rect width="24" height="20" fill="white" transform="translate(0 2)"/>
</clipPath>
</defs>
</svg>
