<svg width="24" height="24" viewBox="0 0 24 24" fill="none" xmlns="http://www.w3.org/2000/svg">
<g clip-path="url(#clip0_50_479)">
<path d="M21.75 7.674C21.7567 7.34711 21.6743 7.02456 21.5115 6.741C21.3403 6.46275 21.0979 6.23518 20.8095 6.08175C18.2125 4.64775 15.6142 3.2145 13.0147 1.782C12.7014 1.59328 12.3419 1.49507 11.9761 1.49824C11.6103 1.50142 11.2525 1.60587 10.9425 1.8C9.909 2.38425 4.73625 5.22375 3.19425 6.0795C2.90099 6.22711 2.65618 6.45569 2.48883 6.73815C2.32148 7.02062 2.2386 7.34513 2.25 7.67325V16.3275C2.24242 16.6471 2.32008 16.9629 2.475 17.2425C2.64712 17.5288 2.89464 17.7623 3.1905 17.9175C4.7325 18.7732 9.906 21.6127 10.9395 22.197C11.2494 22.3914 11.6071 22.4961 11.9729 22.4995C12.3387 22.5029 12.6982 22.405 13.0117 22.2165C15.6067 20.781 18.2032 19.3477 20.8012 17.9167C21.0972 17.7614 21.3449 17.5279 21.5175 17.2417C21.6724 16.9621 21.7501 16.6463 21.7425 16.3267V7.674" fill="#659AD2"/>
<path d="M21.4117 17.3782C21.4511 17.3349 21.4879 17.2893 21.522 17.2417C21.6769 16.9621 21.7546 16.6463 21.747 16.3267V7.67397C21.7537 7.34708 21.6713 7.02454 21.5085 6.74097C21.4815 6.69672 21.4418 6.66222 21.411 6.62097L12 12L21.4117 17.3782Z" fill="#00599C"/>
<path d="M21.4118 17.3782L12 12L2.58826 17.3782C2.74672 17.6021 2.95426 17.7868 3.19501 17.9183C4.73701 18.774 9.91051 21.6135 10.944 22.1978C11.2539 22.3921 11.6116 22.4968 11.9774 22.5003C12.3432 22.5037 12.7028 22.4057 13.0163 22.2172C15.6113 20.7817 18.2078 19.3485 20.8058 17.9175C21.0462 17.7862 21.2534 17.6018 21.4118 17.3782Z" fill="#004482"/>
<path d="M14.7 13.515C14.3659 14.1091 13.8447 14.5761 13.2177 14.8434C12.5906 15.1106 11.8928 15.1631 11.2328 14.9926C10.5729 14.8221 9.98777 14.4382 9.56862 13.9006C9.14946 13.3631 8.91976 12.7021 8.91525 12.0205C8.91075 11.3389 9.1317 10.6749 9.54372 10.1318C9.95573 9.58883 10.5357 9.19724 11.1934 9.01804C11.851 8.83883 12.5495 8.88206 13.18 9.14099C13.8105 9.39992 14.3378 9.86002 14.6797 10.4497L17.391 8.89495C16.7028 7.71392 15.6454 6.79192 14.3816 6.27098C13.1179 5.75003 11.7179 5.65905 10.3974 6.01203C9.07683 6.36502 7.90897 7.1424 7.0737 8.22441C6.23843 9.30643 5.78209 10.6331 5.77497 12C5.77305 13.0839 6.05766 14.1491 6.59997 15.0877C7.1486 16.0359 7.9372 16.823 8.8865 17.3697C9.83579 17.9164 10.9123 18.2036 12.0078 18.2023C13.1033 18.201 14.1791 17.9113 15.1271 17.3623C16.0751 16.8134 16.8618 16.0244 17.4082 15.075L14.7 13.515Z" fill="white"/>
<path d="M18.057 11.6535H17.3625V10.9628H16.6687V11.6535H15.9742V12.3458H16.6687V13.0358H17.3625V12.3458H18.057V11.6535ZM20.6617 11.6535H19.9672V10.9628H19.2727V11.6535H18.5782V12.3458H19.2727V13.0358H19.9672V12.3458H20.6617V11.6535Z" fill="white"/>
</g>
<defs>
<clipPath id="clip0_50_479">
<rect width="24" height="24" fill="white"/>
</clipPath>
</defs>
</svg>
