<svg width="48" height="48" viewBox="0 0 48 48" fill="none" xmlns="http://www.w3.org/2000/svg">
<path d="M24 42C19 42 14.75 40.25 11.25 36.75C7.75 33.25 6 29 6 24C6 19 7.75 14.75 11.25 11.25C14.75 7.75 19 6 24 6C24.4667 6 24.9253 6.01667 25.376 6.05C25.8267 6.08333 26.268 6.13333 26.7 6.2C25.3333 7.16667 24.2413 8.42533 23.424 9.976C22.6067 11.5267 22.1987 13.2013 22.2 15C22.2 18 23.25 20.55 25.35 22.65C27.45 24.75 30 25.8 33 25.8C34.8333 25.8 36.5167 25.3913 38.05 24.574C39.5833 23.7567 40.8333 22.6653 41.8 21.3C41.8667 21.7333 41.9167 22.1747 41.95 22.624C41.9833 23.0733 42 23.532 42 24C42 29 40.25 33.25 36.75 36.75C33.25 40.25 29 42 24 42Z" fill="white"/>
</svg>
