<svg width="24" height="24" viewBox="0 0 24 24" fill="none" xmlns="http://www.w3.org/2000/svg">
<g clip-path="url(#clip0_50_187)">
<g clip-path="url(#clip1_50_187)">
<mask id="mask0_50_187" style="mask-type:luminance" maskUnits="userSpaceOnUse" x="-4" y="0" width="32" height="24">
<path d="M-4 0H28V24H-4V0Z" fill="white"/>
</mask>
<g mask="url(#mask0_50_187)">
<path d="M10.5872 4.37315C12.4297 4.37315 14.2717 4.371 16.1142 4.3737C16.1013 4.8908 16.1357 5.4191 16.0981 5.92865C14.9828 5.93565 13.8664 5.9292 12.7506 5.93135C12.7527 6.62205 12.7463 7.31215 12.7538 8.0023C13.7014 7.99855 14.6485 8.00125 15.596 8.00125V9.532C14.6474 9.53305 13.6993 9.532 12.7506 9.53255V13.0262C12.0293 13.0262 11.3085 13.0267 10.5872 13.0257V4.37315Z" fill="white"/>
<path d="M8.99455 18.3522C9.3751 18.0066 9.947 17.9572 10.4253 18.0937C10.7226 18.1765 11.0155 18.3947 11.0714 18.7145C11.0929 18.901 11.1128 19.1155 10.9951 19.2767C10.8758 19.4498 10.6737 19.5406 10.4753 19.5901C10.7688 19.6465 11.0838 19.8131 11.1676 20.1217C11.223 20.4205 11.2117 20.7688 10.9956 21.0053C10.7376 21.2982 10.3313 21.4003 9.9545 21.4105C9.6202 21.4046 9.2633 21.3493 8.9956 21.1326C8.7887 20.9725 8.6882 20.7172 8.6355 20.4689C8.8908 20.4452 9.1477 20.464 9.4041 20.4565C9.46435 20.8333 9.96255 20.9419 10.2393 20.7317C10.4028 20.5963 10.3952 20.3474 10.3458 20.1609C10.2033 19.8696 9.82605 19.9045 9.5546 19.9061C9.55405 19.7218 9.55405 19.5379 9.5546 19.3541C9.739 19.3498 9.933 19.3772 10.1071 19.3009C10.3119 19.2031 10.3232 18.9112 10.2281 18.7339C10.0077 18.471 9.4885 18.5973 9.46645 18.9628C9.209 18.9639 8.95155 18.9655 8.6941 18.9612C8.7328 18.7349 8.81825 18.5075 8.99455 18.3522Z" fill="white"/>
<path d="M12.3749 20.0249C12.3856 20.2291 12.3313 20.456 12.4464 20.6408C12.6022 20.851 12.9344 20.8585 13.1376 20.7166C13.3203 20.5597 13.3015 20.2893 13.2762 20.0727C13.2499 19.8781 13.0376 19.7701 12.8559 19.7986C12.6694 19.8008 12.5054 19.8981 12.3749 20.0249ZM12.1169 18.1937C12.5243 17.9765 13.0279 17.9819 13.4563 18.1356C13.7895 18.256 14.0179 18.5849 14.0244 18.9381C13.7874 18.9381 13.5498 18.9408 13.3128 18.9365C13.2638 18.5613 12.7312 18.5038 12.4947 18.7322C12.319 18.944 12.3872 19.2359 12.3738 19.488C12.8108 19.0714 13.6401 19.1434 13.9594 19.6712C14.104 19.9013 14.1067 20.1851 14.0894 20.4473C14.0631 20.8258 13.7911 21.1585 13.4434 21.2961C13.0338 21.4573 12.5554 21.4541 12.1529 21.2729C11.8148 21.1197 11.5869 20.7688 11.5713 20.4001C11.5643 19.9841 11.5686 19.5686 11.5692 19.1526C11.5735 18.7682 11.7729 18.3796 12.1169 18.1937Z" fill="white"/>
<path d="M15.61 18.6322C15.4197 18.6956 15.3391 18.9074 15.3337 19.0928C15.3257 19.4707 15.3332 19.8491 15.3299 20.2274C15.3289 20.4097 15.3579 20.6247 15.5186 20.7381C15.739 20.8714 16.1072 20.8305 16.1969 20.5564C16.2851 20.2592 16.2286 19.9442 16.2443 19.6389C16.2292 19.36 16.2931 19.0589 16.1663 18.7978C16.0642 18.601 15.8024 18.5618 15.61 18.6322ZM15.4154 18.0646C15.8175 17.9888 16.2657 18.0173 16.6156 18.2474C16.9263 18.4564 17.0569 18.8461 17.051 19.2078C17.0451 19.604 17.0607 20.0012 17.0429 20.3973C17.0182 20.7859 16.779 21.1659 16.4049 21.3019C15.9562 21.4707 15.4181 21.4567 15.0016 21.2073C14.6855 21.0165 14.528 20.6445 14.5248 20.2855C14.5221 19.9436 14.5259 19.6013 14.5232 19.2589C14.5205 18.9794 14.571 18.6838 14.7479 18.4591C14.9096 18.2484 15.1585 18.1184 15.4154 18.0646Z" fill="white"/>
<path d="M10.5871 4.37317V13.0257C11.3084 13.0268 12.0292 13.0263 12.7505 13.0263V9.53257C13.6992 9.53202 14.6474 9.53307 15.596 9.53202V8.00127C14.6484 8.00127 13.7014 7.99857 12.7538 8.00232C12.7462 7.31217 12.7527 6.62207 12.7505 5.93137C13.8663 5.92922 14.9827 5.93567 16.098 5.92867C16.1356 5.41912 16.1013 4.89082 16.1142 4.37372C14.2716 4.37102 12.4296 4.37317 10.5871 4.37317ZM4.92844 0.893467C5.08054 0.906918 5.23269 0.904767 5.38529 0.903167C10.0986 0.903167 14.8118 0.903667 19.5256 0.903167C19.7207 0.905817 19.919 0.891316 20.1115 0.936466C20.5786 1.06277 20.9258 1.52502 20.9199 2.00932C20.9215 2.79402 20.9199 3.57822 20.9204 4.36297C20.9193 8.41617 20.922 12.4689 20.9193 16.5221C15.5842 16.528 10.2496 16.5172 4.91504 16.5275C4.91449 12.564 4.91504 8.60107 4.91449 4.63817C4.97089 3.74487 4.93219 2.84832 4.94349 1.95337C4.93864 1.60562 4.95694 1.25737 4.92954 0.910117L4.92844 0.893467Z" fill="#FF6B00"/>
<path d="M4.44256 1.17189C4.60326 1.08214 4.75001 0.961193 4.92951 0.910143C4.95696 1.25734 4.93866 1.60564 4.94351 1.95339C4.93221 2.84829 4.97091 3.74484 4.91446 4.63814C4.91501 8.60104 4.91446 12.564 4.91501 16.5274C4.39901 16.8268 3.89271 17.1439 3.37886 17.4481C2.76666 17.8195 2.15231 18.1883 1.53906 18.5586C1.53956 13.3492 1.54281 8.13989 1.53741 2.93054C2.49956 2.33444 3.47506 1.75939 4.44256 1.17189Z" fill="#FF9447"/>
<path d="M15.4154 18.0646C15.1585 18.1183 14.9096 18.2484 14.7478 18.4591C14.571 18.6838 14.5205 18.9794 14.5232 19.2589C14.5259 19.6012 14.5221 19.9436 14.5248 20.2855C14.528 20.6445 14.6855 21.0165 15.0016 21.2073C15.4181 21.4567 15.9561 21.4706 16.4049 21.3019C16.779 21.1659 17.0182 20.7859 17.0429 20.3973C17.0607 20.0011 17.0451 19.6039 17.051 19.2078C17.0569 18.8461 16.9263 18.4564 16.6156 18.2473C16.2657 18.0173 15.8175 17.9888 15.4154 18.0646ZM12.1168 18.1936C11.7728 18.3795 11.5734 18.7681 11.5691 19.1525C11.5686 19.5685 11.5643 19.984 11.5713 20.4C11.5869 20.7687 11.8148 21.1197 12.1528 21.2728C12.5554 21.454 13.0338 21.4572 13.4434 21.296C13.7911 21.1584 14.0631 20.8257 14.0894 20.4472C14.1066 20.185 14.104 19.9012 13.9594 19.6711C13.6401 19.1433 12.8107 19.0713 12.3738 19.4879C12.3872 19.2358 12.3189 18.9439 12.4947 18.7322C12.7312 18.5037 13.2638 18.5612 13.3127 18.9364C13.5498 18.9407 13.7873 18.938 14.0244 18.938C14.0179 18.5848 13.7895 18.2559 13.4562 18.1355C13.0279 17.9818 12.5243 17.9764 12.1168 18.1936ZM8.99456 18.3521C8.81826 18.5074 8.73276 18.7348 8.69406 18.9611C8.95156 18.9654 9.20901 18.9638 9.46646 18.9627C9.48846 18.5972 10.0077 18.4709 10.2281 18.7338C10.3232 18.9111 10.3119 19.203 10.1071 19.3008C9.93301 19.3771 9.73896 19.3497 9.55461 19.354C9.55406 19.5378 9.55406 19.7217 9.55461 19.906C9.82601 19.9044 10.2034 19.8695 10.3458 20.1608C10.3953 20.3473 10.4028 20.5962 10.2394 20.7316C9.96256 20.9418 9.46431 20.8332 9.40411 20.4564C9.14771 20.4639 8.89081 20.4451 8.63551 20.4688C8.68816 20.7171 8.78866 20.9724 8.99561 21.1325C9.26331 21.3492 9.62016 21.4045 9.95451 21.4104C10.3313 21.4002 10.7376 21.2981 10.9956 21.0052C11.2117 20.7687 11.223 20.4204 11.1676 20.1216C11.0838 19.813 10.7688 19.6464 10.4753 19.59C10.6737 19.5405 10.8758 19.4497 10.9951 19.2766C11.1128 19.1154 11.0929 18.9009 11.0714 18.7144C11.0155 18.3946 10.7226 18.1764 10.4254 18.0936C9.94696 17.9571 9.37506 18.0065 8.99456 18.3521ZM20.9204 4.36288C21.4342 4.36233 21.948 4.36128 22.4624 4.36343C22.4624 10.6112 22.463 16.859 22.4619 23.1062C16.4641 23.1062 10.4667 23.1073 4.46886 23.1057C3.87711 23.1309 3.36486 22.5832 3.37291 22.0028C3.37401 20.4849 3.36221 18.9659 3.37886 17.4481C3.89266 17.1439 4.39901 16.8267 4.91501 16.5274C10.2496 16.5171 15.5842 16.5279 20.9193 16.522C20.922 12.4688 20.9193 8.41608 20.9204 4.36288Z" fill="#923B00"/>
<path d="M15.61 18.6323C15.8024 18.5619 16.0642 18.6011 16.1663 18.7979C16.2931 19.059 16.2292 19.3601 16.2443 19.639C16.2286 19.9443 16.2851 20.2593 16.1969 20.5565C16.1072 20.8306 15.739 20.8715 15.5186 20.7382C15.3579 20.6248 15.3289 20.4098 15.3299 20.2275C15.3332 19.8492 15.3257 19.4708 15.3337 19.0929C15.3391 18.9075 15.4197 18.6957 15.61 18.6323Z" fill="#923B00"/>
<path d="M12.3749 20.0249C12.5054 19.8981 12.6694 19.8008 12.8559 19.7986C13.0376 19.7701 13.2499 19.8781 13.2762 20.0727C13.3015 20.2893 13.3203 20.5597 13.1376 20.7166C12.9344 20.8585 12.6022 20.851 12.4464 20.6408C12.3313 20.456 12.3856 20.2291 12.3749 20.0249Z" fill="#923B00"/>
</g>
</g>
</g>
<defs>
<clipPath id="clip0_50_187">
<rect width="24" height="24" fill="white"/>
</clipPath>
<clipPath id="clip1_50_187">
<rect width="32" height="24" fill="white" transform="translate(-4)"/>
</clipPath>
</defs>
</svg>
