<svg width="24" height="24" viewBox="0 0 24 24" fill="none" xmlns="http://www.w3.org/2000/svg">
<g clip-path="url(#clip0_50_470)">
<path d="M12 0.333374C10.4679 0.333374 8.9508 0.635141 7.53534 1.22145C6.11987 1.80775 4.83375 2.66711 3.7504 3.75046C1.56248 5.93839 0.333313 8.90585 0.333313 12C0.333313 17.1567 3.68165 21.5317 8.31331 23.0834C8.89665 23.1767 9.08331 22.815 9.08331 22.5V20.5284C5.85165 21.2284 5.16331 18.965 5.16331 18.965C4.62665 17.6117 3.86831 17.25 3.86831 17.25C2.80665 16.5267 3.94998 16.55 3.94998 16.55C5.11665 16.6317 5.73498 17.7517 5.73498 17.7517C6.74998 19.525 8.46498 19 9.12998 18.72C9.23498 17.9617 9.53831 17.4484 9.86498 17.1567C7.27498 16.865 4.55665 15.8617 4.55665 11.4167C4.55665 10.1217 4.99998 9.08337 5.75831 8.25504C5.64165 7.96337 5.23331 6.75004 5.87498 5.17504C5.87498 5.17504 6.85498 4.86004 9.08331 6.36504C10.005 6.10837 11.0083 5.98004 12 5.98004C12.9916 5.98004 13.995 6.10837 14.9166 6.36504C17.145 4.86004 18.125 5.17504 18.125 5.17504C18.7666 6.75004 18.3583 7.96337 18.2416 8.25504C19 9.08337 19.4433 10.1217 19.4433 11.4167C19.4433 15.8734 16.7133 16.8534 14.1116 17.145C14.5316 17.5067 14.9166 18.2184 14.9166 19.3034V22.5C14.9166 22.815 15.1033 23.1884 15.6983 23.0834C20.33 21.52 23.6666 17.1567 23.6666 12C23.6666 10.468 23.3649 8.95086 22.7786 7.5354C22.1923 6.11994 21.3329 4.83381 20.2496 3.75046C19.1662 2.66711 17.8801 1.80775 16.4646 1.22145C15.0492 0.635141 13.5321 0.333374 12 0.333374Z" fill="#F0F6FC"/>
</g>
<defs>
<clipPath id="clip0_50_470">
<rect width="24" height="24" fill="white"/>
</clipPath>
</defs>
</svg>
