<svg width="36" height="36" viewBox="0 0 36 36" fill="none" xmlns="http://www.w3.org/2000/svg">
<g clip-path="url(#clip0_22_112)">
<path d="M8.18184 31.3671V17.5299L3.86817 13.604L0 11.4254V28.9252C0 30.2763 1.10039 31.3671 2.45461 31.3671H8.18184Z" fill="#4285F4"/>
<path d="M27.8182 31.3671H33.5454C34.9037 31.3671 36 30.2722 36 28.9252V11.4255L31.6187 13.9209L27.8182 17.5299V31.3671Z" fill="#34A853"/>
<path d="M8.18184 17.5299L7.59488 12.1234L8.18184 6.94873L18 14.2743L27.8182 6.94873L28.4747 11.844L27.8182 17.5299L18 24.8555L8.18184 17.5299Z" fill="#EA4335"/>
<path d="M27.8182 6.9487V17.5299L36 11.4254V8.16958C36 5.14992 32.535 3.42849 30.1092 5.23945L27.8182 6.9487Z" fill="#FBBC04"/>
<path d="M0 11.4255L3.76298 14.2332L8.18184 17.53V6.94877L5.89078 5.23951C3.46078 3.42841 0 5.14998 0 8.1695V11.4255Z" fill="#C5221F"/>
</g>
<defs>
<clipPath id="clip0_22_112">
<rect width="36" height="27" fill="white" transform="translate(0 4.5)"/>
</clipPath>
</defs>
</svg>
