<svg width="24" height="24" viewBox="0 0 24 24" fill="none" xmlns="http://www.w3.org/2000/svg">
<g clip-path="url(#clip0_50_501)">
<path d="M20.4704 4.70471L18.9271 22.014L11.9896 23.9394L5.0713 22.0166L3.52954 4.70471H20.4704Z" fill="#E44D26"/>
<path d="M12 22.4676L17.6058 20.9117L18.9246 6.12012H12V22.4676Z" fill="#F16529"/>
<path d="M8.99978 10.3666H12V8.24341H6.68201L6.73274 8.81303L7.25403 14.6641H12V12.5409H9.19362L8.99978 10.3666ZM9.47778 15.7258H7.34879L7.64589 19.0596L11.9903 20.2669L12 20.2642V18.0552L11.9907 18.0576L9.62878 17.4191L9.47778 15.7258Z" fill="#EBEBEB"/>
<path d="M5.10571 0H6.18349V1.06604H7.16942V0H8.24726V3.22823H7.16949V2.14724H6.18355V3.22823H5.10578L5.10571 0ZM9.6645 1.07056H8.71582V0H11.6918V1.07056H10.7425V3.22823H9.6647V1.07056H9.6645ZM12.164 0H13.2878L13.9791 1.13432L14.6697 0H15.794V3.22823H14.7206V1.62814L13.9791 2.77596H13.9605L13.2186 1.62814V3.22823H12.164V0ZM16.3304 0H17.4085V2.1612H18.9241V3.22823H16.3303L16.3304 0Z" fill="black"/>
<path d="M11.9927 14.6641H14.6042L14.358 17.4178L11.9926 18.0569V20.2659L16.3404 19.0596L16.3723 18.7008L16.8708 13.111L16.9225 12.5409H11.9927V14.6641ZM11.9927 10.3615V10.3666H17.1155L17.158 9.88944L17.2546 8.81303L17.3053 8.24341H11.9927V10.3615Z" fill="white"/>
</g>
<defs>
<clipPath id="clip0_50_501">
<rect width="17" height="24" fill="white" transform="translate(3.5)"/>
</clipPath>
</defs>
</svg>
