<svg width="24" height="24" viewBox="0 0 24 24" fill="none" xmlns="http://www.w3.org/2000/svg">
<g clip-path="url(#clip0_50_524)">
<path d="M8.80457 18.553C8.80457 18.553 7.87658 19.0854 9.46501 19.2655C11.3894 19.4821 12.3729 19.451 14.4936 19.055C14.4936 19.055 15.0511 19.3999 15.8297 19.6987C11.0758 21.7086 5.07055 19.5822 8.80457 18.553ZM8.22365 15.9301C8.22365 15.9301 7.18281 16.6901 8.77243 16.8523C10.8281 17.0615 12.4515 17.0787 15.2606 16.545C15.2606 16.545 15.6491 16.9336 16.2601 17.1461C10.5122 18.8042 4.11022 17.2769 8.22365 15.9301Z" fill="#5382A1"/>
<path d="M13.1209 11.4809C14.2923 12.8113 12.8132 14.0085 12.8132 14.0085C12.8132 14.0085 15.7874 12.4938 14.4215 10.597C13.1457 8.82817 12.1673 7.94919 17.4638 4.91895C17.4638 4.91895 9.15016 6.96734 13.1209 11.4809Z" fill="#E76F00"/>
<path d="M19.4084 20.4931C19.4084 20.4931 20.0951 21.0513 18.652 21.4832C15.908 22.3033 7.23103 22.5509 4.82058 21.5158C3.95412 21.144 5.57904 20.628 6.09014 20.5196C6.62318 20.4056 6.92785 20.4269 6.92785 20.4269C5.96421 19.7572 0.699354 21.7418 4.25358 22.3101C13.9464 23.8608 21.9225 21.6119 19.4084 20.4931ZM9.25076 13.2125C9.25076 13.2125 4.83717 14.2467 7.68785 14.6222C8.89146 14.7812 11.2909 14.7453 13.5259 14.5605C15.3525 14.4086 17.1866 14.0853 17.1866 14.0853C17.1866 14.0853 16.5425 14.3575 16.0766 14.6713C11.5946 15.8342 2.93613 15.2932 5.42878 14.1037C7.53682 13.0985 9.25076 13.2125 9.25076 13.2125ZM17.1684 17.5784C21.7246 15.2428 19.618 12.9983 18.1476 13.3008C17.7872 13.3747 17.6265 13.4388 17.6265 13.4388C17.6265 13.4388 17.7603 13.2321 18.0158 13.1426C20.9247 12.1337 23.1618 16.1181 17.0768 17.6962C17.0768 17.6962 17.1473 17.6341 17.1684 17.5784Z" fill="#5382A1"/>
<path d="M14.4215 0.0257041C14.4215 0.0257041 16.9448 2.51588 12.0282 6.34485C8.08575 9.41643 11.1292 11.1677 12.0266 13.1687C9.72529 11.1204 8.03639 9.31717 9.16947 7.63898C10.8324 5.17537 15.4395 3.98106 14.4215 0.0257041Z" fill="#E76F00"/>
<path d="M9.69855 23.9075C14.0719 24.1837 20.7877 23.7542 20.9467 21.7128C20.9467 21.7128 20.641 22.4867 17.3324 23.1013C13.5996 23.7942 8.99584 23.7134 6.26526 23.2692C6.26533 23.2692 6.82417 23.7256 9.69855 23.9075Z" fill="#5382A1"/>
</g>
<defs>
<clipPath id="clip0_50_524">
<rect width="18" height="24" fill="white" transform="translate(3)"/>
</clipPath>
</defs>
</svg>
