<svg width="24" height="24" viewBox="0 0 24 24" fill="none" xmlns="http://www.w3.org/2000/svg">
<g clip-path="url(#clip0_50_181)">
<g clip-path="url(#clip1_50_181)">
<path d="M1 0C0.447716 0 0 0.447715 0 1V23C0 23.5523 0.447715 24 1 24H23C23.5523 24 24 23.5523 24 23V1C24 0.447716 23.5523 0 23 0H1Z" fill="#1D2D68"/>
<path d="M1 1V23H23V1H1Z" fill="#314CB0"/>
<path d="M18.2472 1.33645C19.9101 0.377786 22 1.58261 22 3.49999C22 5.41737 19.9101 6.62224 18.2472 5.66353C16.5843 4.70482 16.5843 2.29512 18.2472 1.33645Z" fill="#FF7700"/>
<path d="M10.4087 20C10.5882 19.2372 10.268 18.8117 9.64727 17.8509L6.50353 13.6172V17.9046C6.50353 18.9003 6.70658 19.5988 7.1127 20H2C2.532 19.4127 2.62412 19.0759 2.60904 17.9154V6.08463C2.60883 4.90994 2.55402 4.61643 2 4H7.1127C6.70656 4.40122 6.5035 5.09611 6.50353 6.08467V10.0282L9.6255 6.12761C10.2378 5.33965 10.7623 4.57382 10.5284 4.00004H15.9783C14.9529 4.67028 14.4227 5.45063 13.5416 6.51447L9.45143 11.5433L14.3357 18.184C14.9134 18.9465 15.568 19.7179 16 20H10.4087Z" fill="white"/>
<path d="M17 20C17.3836 19.5985 17.5425 19.3805 17.5227 18.2303V10.7495C17.5478 9.83311 17.4854 9.485 17.0114 9H21.4773V18.2303C21.4888 19.2163 21.4942 19.474 22 20H17Z" fill="white"/>
</g>
</g>
<defs>
<clipPath id="clip0_50_181">
<rect width="24" height="24" fill="white"/>
</clipPath>
<clipPath id="clip1_50_181">
<rect width="24" height="24" fill="white"/>
</clipPath>
</defs>
</svg>
