<svg width="48" height="48" viewBox="0 0 48 48" fill="none" xmlns="http://www.w3.org/2000/svg">
<path d="M24 34C21.2333 34 18.8753 33.0247 16.926 31.074C14.9767 29.1233 14.0013 26.7653 14 24C13.9987 21.2347 14.974 18.8767 16.926 16.926C18.878 14.9753 21.236 14 24 14C26.764 14 29.1227 14.9753 31.076 16.926C33.0293 18.8767 34.004 21.2347 34 24C33.996 26.7653 33.0207 29.124 31.074 31.076C29.1273 33.028 26.7693 34.0027 24 34ZM10 26H2V22H10V26ZM46 26H38V22H46V26ZM22 10V2H26V10H22ZM22 46V38H26V46H22ZM12.8 15.5L7.75 10.65L10.6 7.7L15.4 12.7L12.8 15.5ZM37.4 40.3L32.55 35.25L35.2 32.5L40.25 37.35L37.4 40.3ZM32.5 12.8L37.35 7.75L40.3 10.6L35.3 15.4L32.5 12.8ZM7.7 37.4L12.75 32.55L15.5 35.2L10.65 40.25L7.7 37.4Z" fill="white"/>
</svg>
