<svg width="36" height="36" viewBox="0 0 36 36" fill="none" xmlns="http://www.w3.org/2000/svg">
<g clip-path="url(#clip0_22_114)">
<g clip-path="url(#clip1_22_114)">
<path d="M30.6736 30.6742H25.3396V22.3207C25.3396 20.3287 25.304 17.7644 22.5653 17.7644C19.7871 17.7644 19.362 19.9348 19.362 22.1757V30.6736H14.0281V13.4954H19.1487V15.843H19.2204C19.7329 14.9668 20.4734 14.246 21.3631 13.7574C22.2528 13.2687 23.2584 13.0305 24.2728 13.0681C29.6791 13.0681 30.6759 16.6242 30.6759 21.2505L30.6736 30.6742ZM8.00937 11.1474C6.2998 11.1477 4.91366 9.762 4.91337 8.05242C4.91309 6.34284 6.29867 4.9567 8.00825 4.95642C9.71783 4.956 11.104 6.34171 11.1042 8.05129C11.1044 8.87227 10.7784 9.65968 10.198 10.2403C9.61763 10.8209 8.83035 11.1472 8.00937 11.1474ZM10.6765 30.6743H5.3368V13.4954H10.6763L10.6765 30.6743ZM33.3328 0.00262011H2.65648C1.20664 -0.0136924 0.0176558 1.14773 -6.29425e-05 2.59757V33.4019C0.0170933 34.8524 1.20594 36.015 2.65634 35.9998H33.3328C34.7863 36.0178 35.9798 34.8553 35.9999 33.4019V2.59518C35.9793 1.14253 34.7856 -0.0187549 33.3328 0.000229485" fill="#0A66C2"/>
</g>
</g>
<defs>
<clipPath id="clip0_22_114">
<rect width="36" height="36" fill="white"/>
</clipPath>
<clipPath id="clip1_22_114">
<rect width="36" height="36" fill="white"/>
</clipPath>
</defs>
</svg>
