<svg width="1024" height="1024" viewBox="0 0 1024 1024" fill="none" xmlns="http://www.w3.org/2000/svg">
<path d="M0 339.968C0 60.0043 60.0043 0 339.968 0H684.032C963.996 0 1024 60.0043 1024 339.968V684.032C1024 963.996 963.996 1024 684.032 1024H339.968C60.0043 1024 0 963.996 0 684.032V339.968Z" fill="url(#paint0_linear_21_57)"/>
<path d="M115.8 720.804C119.651 691.997 122.739 677.937 129.279 651.666C136.93 620.939 146.468 601.78 155.276 571.966C165.867 545.079 173.569 523.954 184.328 503.783C197.64 474.021 205.08 459.617 219.784 436.572C240.004 404.884 245.781 392.401 270.814 366.474C288.771 347.876 300.804 337.705 321.843 326.144C341.721 314.573 352.992 315.582 371.91 320.382C387.315 329.024 392.115 337.669 397.906 353.991C399.726 386.364 398.623 404.096 392.802 432.727L380.255 492.26L372.534 534.51C368.673 553.714 367.353 563.882 368.059 581.56C368.074 596.942 370.021 604.404 374.798 614.208C384.46 623.512 384.562 626.312 396.943 627.733C413.967 629.746 423.902 622.841 435.456 614.208C447.01 605.575 459.734 590.04 470.325 575.807C494.62 543.159 501.797 527.134 524.035 492.26L558.697 432.727C572.176 409.685 579.868 399.019 593.358 380.878C606.848 362.737 613.577 353.278 629.945 336.706C643.954 322.524 652.338 316.368 668.458 305.018C691.384 291.831 706.831 287.87 732.004 286.774C752.282 288.434 762.606 291.22 779.182 300.217C790.736 311.74 797.071 318.168 803.959 332.864C808.067 351.11 809.733 360.69 809.03 377.037C807.831 404.884 805.611 418.335 802.29 440.413C799.401 459.618 795.947 473.814 792.237 488.433C782.609 521.081 782.459 530.518 773.614 561.404C767.962 586.992 766.076 599.029 764.387 622.85C762.259 648.615 762.976 661.102 768.12 681.866C772.024 694.751 774.368 702.485 783.034 711.202C794.061 722.294 800.398 726.72 814.807 732.327C825.03 734.714 829.911 736.281 840.803 736.168C856.626 734.926 854.758 736.355 866.799 732.327C874.212 729.224 883.167 726.566 889.906 721.764C896.646 716.963 904.574 710.061 908.2 706.4" stroke="white" stroke-width="57.4" stroke-linecap="round"/>
<defs>
<linearGradient id="paint0_linear_21_57" x1="0" y1="0" x2="1024" y2="1024" gradientUnits="userSpaceOnUse">
<stop stop-color="#2E445E"/>
<stop offset="1" stop-color="#12A4A4"/>
</linearGradient>
</defs>
</svg>
