<svg width="24" height="24" viewBox="0 0 24 24" fill="none" xmlns="http://www.w3.org/2000/svg">
<g clip-path="url(#clip0_50_450)">
<path d="M2.38291 1.03325L15.1015 0.0544419C16.6637 -0.0852596 17.0652 0.00894937 18.0474 0.753039L22.1074 3.73352C22.7771 4.24602 23 4.38582 23 4.9439V21.2896C23 22.314 22.6429 22.9199 21.3933 23.0126L6.62375 23.9443C5.68591 23.9906 5.2393 23.8509 4.74816 23.1986L1.75848 19.1475C1.22223 18.4018 1 17.8436 1 17.1913V2.66202C1 1.82453 1.35707 1.12593 2.38291 1.03325Z" fill="white"/>
<path d="M15.1015 0.0544419L2.38291 1.03325C1.35707 1.12593 1 1.82453 1 2.66202V17.1914C1 17.8437 1.22215 18.4018 1.75848 19.1475L4.74816 23.1986C5.2393 23.8509 5.68591 23.9906 6.62375 23.9443L21.3933 23.0126C22.6422 22.9199 23 22.314 23 21.2896V4.9439C23 4.41456 22.7992 4.26205 22.2085 3.81017L22.1067 3.73352L18.0474 0.753039C17.0652 0.00894937 16.6638 -0.0852596 15.1015 0.0544419ZM6.95779 4.67641C5.75183 4.76104 5.47829 4.7802 4.79337 4.19973L3.05184 2.75623C2.87481 2.56943 2.96367 2.33623 3.4096 2.28993L15.6363 1.35904C16.663 1.26564 17.1978 1.63844 17.5993 1.96423L19.6962 3.54752C19.7859 3.59453 20.0089 3.87322 19.7406 3.87322L7.11411 4.66522L6.95779 4.67641ZM5.55185 21.1499V7.27361C5.55185 6.66761 5.73034 6.3882 6.26513 6.3411L20.7673 5.45641C21.2593 5.41011 21.4815 5.73581 21.4815 6.3411V20.1247C21.4815 20.7307 21.3918 21.2432 20.5889 21.2896L6.71106 22.1279C5.90815 22.1742 5.55185 21.8956 5.55185 21.1499ZM19.2511 8.01761C19.34 8.4368 19.2511 8.85599 18.8489 8.9039L18.18 9.04199V19.2871C17.5993 19.6128 17.0645 19.7989 16.6177 19.7989C15.9037 19.7989 15.7251 19.5657 15.1903 18.8679L10.8163 11.6967V18.6348L12.1999 18.9613C12.1999 18.9613 12.1999 19.7997 11.0836 19.7997L8.00588 19.9857C7.91625 19.7989 8.00588 19.3334 8.31784 19.2408L9.12144 19.0084V9.83489L8.00597 9.74068C7.91625 9.32158 8.13917 8.71629 8.76445 8.66919L12.0667 8.4377L16.6178 15.7015V9.27528L15.4578 9.13629C15.3681 8.62289 15.7251 8.25008 16.1711 8.20459L19.2511 8.01761Z" fill="black"/>
</g>
<defs>
<clipPath id="clip0_50_450">
<rect width="22" height="24" fill="white" transform="translate(1)"/>
</clipPath>
</defs>
</svg>
