<svg width="24" height="24" viewBox="0 0 24 24" fill="none" xmlns="http://www.w3.org/2000/svg">
<g clip-path="url(#clip0_50_190)">
<g clip-path="url(#clip1_50_190)">
<path d="M12 0C8.79469 0 5.78119 1.24819 3.51469 3.51469C1.24819 5.78119 0 8.79469 0 12C0 15.2053 1.24819 18.2188 3.51469 20.4853C5.78119 22.7518 8.79469 24 12 24C15.2053 24 18.2188 22.7518 20.4853 20.4853C22.7518 18.2188 24 15.2053 24 12C24 8.79469 22.7518 5.78119 20.4853 3.51469C18.2188 1.24819 15.2053 0 12 0Z" fill="#FF7F00"/>
<path d="M23.38 12.0001C23.38 18.2851 18.2849 23.38 12 23.38C5.71503 23.38 0.619995 18.2851 0.619995 12.0001C0.619995 5.71505 5.71503 0.620117 12 0.620117C18.285 0.620117 23.38 5.71505 23.38 12.0001Z" fill="white"/>
<path d="M15.0815 6.94334L15.5638 5.2055C16.0573 5.16143 16.4443 4.74743 16.4443 4.2424C16.4443 3.70803 16.0112 3.2749 15.4768 3.2749C14.9424 3.2749 14.5093 3.70803 14.5093 4.2424C14.5093 4.59443 14.698 4.90146 14.979 5.07087L14.5056 6.77665C13.1521 6.43259 12.0095 6.45884 12.0095 6.45884L11.7978 6.55353V19.7603L12.0095 19.8309C13.2858 19.8309 18.8698 15.9747 18.8835 11.8368C18.8835 8.87206 16.9126 7.54071 15.0815 6.94334ZM13.7372 15.45C12.6481 13.7103 13.1085 9.66087 15.9537 9.08206C16.7337 8.95709 17.6889 9.46962 17.9703 10.6082C18.6811 13.0238 14.5001 16.4062 13.7372 15.45ZM15.4449 11.7233C15.2113 11.7233 14.9871 11.8161 14.8219 11.9814C14.6567 12.1466 14.5638 12.3707 14.5638 12.6044C14.5638 12.8381 14.6567 13.0623 14.8219 13.2275C14.9872 13.3928 15.2113 13.4856 15.445 13.4856C15.6787 13.4855 15.9028 13.3927 16.0681 13.2274C16.2333 13.0622 16.3261 12.838 16.3261 12.6043C16.3261 12.3707 16.2332 12.1466 16.068 11.9814C15.9027 11.8161 15.6786 11.7233 15.4449 11.7233ZM15.7084 12.5363C15.6792 12.5363 15.6502 12.5305 15.6232 12.5193C15.5962 12.5081 15.5716 12.4917 15.551 12.4711C15.5303 12.4504 15.5139 12.4259 15.5027 12.3989C15.4915 12.3718 15.4858 12.3429 15.4858 12.3137C15.4858 12.2844 15.4915 12.2555 15.5027 12.2285C15.5139 12.2015 15.5303 12.1769 15.551 12.1563C15.5716 12.1356 15.5962 12.1192 15.6232 12.108C15.6502 12.0968 15.6792 12.0911 15.7084 12.0911C15.7674 12.0911 15.824 12.1145 15.8658 12.1563C15.9075 12.198 15.931 12.2546 15.931 12.3137C15.931 12.3727 15.9075 12.4293 15.8658 12.4711C15.824 12.5128 15.7674 12.5363 15.7084 12.5363Z" fill="#E57200"/>
<path d="M9.5035 6.81642L9.0326 5.04445C9.30204 4.8727 9.48129 4.57195 9.48129 4.22873C9.48129 3.69436 9.04816 3.26123 8.51379 3.26123C7.9795 3.26123 7.54638 3.69436 7.54638 4.22873C7.54638 4.76142 7.97688 5.19332 8.50891 5.19595L8.98122 6.97289C7.14288 7.5832 5.14825 8.91745 5.14825 11.8366C5.18913 16.0563 10.7331 19.8304 12.0094 19.8304V6.45857C12.0094 6.45857 10.8607 6.45276 9.5035 6.81642ZM10.4781 15.4499C9.71519 16.4061 5.53422 13.0236 6.24494 10.6081C6.52638 9.46954 7.4815 8.95701 8.2616 9.08189C11.1069 9.66079 11.5672 13.7102 10.4781 15.4499M8.71375 11.7506C8.48008 11.7506 8.25598 11.8434 8.09074 12.0087C7.9255 12.1739 7.83265 12.398 7.8326 12.6316C7.8326 12.8654 7.92544 13.0895 8.09071 13.2548C8.25598 13.42 8.48013 13.5129 8.71385 13.5129C8.94754 13.5128 9.17164 13.42 9.33686 13.2547C9.50209 13.0894 9.59491 12.8653 9.59491 12.6316C9.59489 12.3979 9.50204 12.1738 9.3368 12.0086C9.17156 11.8433 8.94744 11.7506 8.71375 11.7506ZM8.45032 12.5634C8.39129 12.5634 8.33468 12.5399 8.29294 12.4982C8.2512 12.4565 8.22775 12.3999 8.22775 12.3408C8.22775 12.2818 8.2512 12.2252 8.29294 12.1834C8.33468 12.1417 8.39129 12.1183 8.45032 12.1183C8.50934 12.1183 8.56595 12.1417 8.60769 12.1834C8.64943 12.2252 8.67288 12.2818 8.67288 12.3408C8.67288 12.3999 8.64943 12.4565 8.60769 12.4982C8.56595 12.5399 8.50934 12.5634 8.45032 12.5634Z" fill="#FF7F00"/>
</g>
</g>
<defs>
<clipPath id="clip0_50_190">
<rect width="24" height="24" fill="white"/>
</clipPath>
<clipPath id="clip1_50_190">
<rect width="24" height="24" fill="white"/>
</clipPath>
</defs>
</svg>
