<svg width="24" height="24" viewBox="0 0 24 24" fill="none" xmlns="http://www.w3.org/2000/svg">
<g clip-path="url(#clip0_50_513)">
<g clip-path="url(#clip1_50_513)">
<path d="M11.8984 0.00683594C5.82039 0.00683594 6.19989 2.65295 6.19989 2.65295L6.20664 5.39441H12.0068V6.21747H3.90292C3.90292 6.21747 0.0136108 5.77465 0.0136108 11.9314C0.0136108 18.0882 3.4083 17.8699 3.4083 17.8699H5.43424V15.0129C5.43424 15.0129 5.32502 11.6049 8.77474 11.6049H14.5274C14.5274 11.6049 17.7595 11.6573 17.7595 8.46895V3.19724C17.7595 3.19724 18.2503 0.00683594 11.8984 0.00683594ZM8.7002 1.85041C8.83727 1.85029 8.973 1.8773 9.09966 1.9299C9.22631 1.9825 9.34138 2.05965 9.4383 2.15695C9.53522 2.25425 9.61207 2.36978 9.66447 2.49692C9.71686 2.62407 9.74376 2.76034 9.74364 2.89794C9.74376 3.03554 9.71686 3.17181 9.66447 3.29896C9.61207 3.42611 9.53522 3.54164 9.4383 3.63893C9.34138 3.73623 9.22631 3.81339 9.09966 3.86598C8.973 3.91858 8.83727 3.94559 8.7002 3.94547C8.56314 3.94559 8.4274 3.91858 8.30075 3.86598C8.1741 3.81339 8.05902 3.73623 7.96211 3.63893C7.86519 3.54164 7.78834 3.42611 7.73594 3.29896C7.68355 3.17181 7.65664 3.03554 7.65677 2.89794C7.65664 2.76034 7.68355 2.62407 7.73594 2.49692C7.78834 2.36978 7.86519 2.25425 7.96211 2.15695C8.05902 2.05965 8.1741 1.9825 8.30075 1.9299C8.4274 1.8773 8.56314 1.85029 8.7002 1.85041Z" fill="url(#paint0_linear_50_513)"/>
<path d="M12.071 23.9177C18.149 23.9177 17.7695 21.2716 17.7695 21.2716L17.7627 18.5302H11.9625V17.7072H20.0664C20.0664 17.7072 23.9557 18.15 23.9557 11.9931C23.9557 5.83632 20.561 6.05467 20.561 6.05467H18.5351V8.91161C18.5351 8.91161 18.6443 12.3196 15.1946 12.3196H9.44187C9.44187 12.3196 6.20984 12.2672 6.20984 15.4556V20.7274C6.20984 20.7274 5.71906 23.9177 12.0709 23.9177M15.2691 22.0743C15.132 22.0745 14.9963 22.0475 14.8696 21.9949C14.743 21.9423 14.6279 21.8651 14.531 21.7678C14.4341 21.6705 14.3572 21.555 14.3048 21.4278C14.2524 21.3007 14.2255 21.1644 14.2257 21.0268C14.2255 20.8892 14.2524 20.7529 14.3048 20.6258C14.3572 20.4986 14.434 20.3831 14.531 20.2858C14.6279 20.1884 14.743 20.1113 14.8696 20.0587C14.9963 20.0061 15.132 19.9791 15.2691 19.9792C15.4062 19.9791 15.5419 20.0061 15.6685 20.0587C15.7952 20.1113 15.9103 20.1884 16.0072 20.2857C16.1041 20.383 16.181 20.4985 16.2334 20.6257C16.2857 20.7528 16.3127 20.8891 16.3125 21.0267C16.3127 21.1643 16.2857 21.3006 16.2334 21.4277C16.181 21.5549 16.1041 21.6704 16.0072 21.7677C15.9103 21.865 15.7952 21.9422 15.6685 21.9948C15.5419 22.0474 15.4062 22.0745 15.2691 22.0743Z" fill="url(#paint1_linear_50_513)"/>
</g>
</g>
<defs>
<linearGradient id="paint0_linear_50_513" x1="230.096" y1="215.072" x2="1421.19" y2="1389.68" gradientUnits="userSpaceOnUse">
<stop stop-color="#387EB8"/>
<stop offset="1" stop-color="#366994"/>
</linearGradient>
<linearGradient id="paint1_linear_50_513" x1="345.812" y1="373.677" x2="1624.68" y2="1577.91" gradientUnits="userSpaceOnUse">
<stop stop-color="#FFE052"/>
<stop offset="1" stop-color="#FFC331"/>
</linearGradient>
<clipPath id="clip0_50_513">
<rect width="24" height="24" fill="white"/>
</clipPath>
<clipPath id="clip1_50_513">
<rect width="24" height="24" fill="white"/>
</clipPath>
</defs>
</svg>
