<svg width="24" height="29" viewBox="0 0 24 29" fill="none" xmlns="http://www.w3.org/2000/svg">
<path fill-rule="evenodd" clip-rule="evenodd" d="M21.8222 8.74188H17.7778V7.00855H22.1126C22.907 7.00855 23.5556 7.65277 23.5556 8.44721V27.2365C23.554 27.6176 23.402 27.9827 23.1325 28.2522C22.863 28.5216 22.498 28.6737 22.1169 28.6752H1.88312C1.50203 28.6737 1.13699 28.5216 0.867515 28.2522C0.598041 27.9827 0.445979 27.6176 0.444458 27.2365V8.44721C0.445985 8.06537 0.598643 7.69967 0.869051 7.43008C1.13946 7.16048 1.50562 7.00892 1.88746 7.00855H6.22224V8.74188H2.17779V26.9419H21.8222V8.74188ZM12.8667 3.05366V16.3974H11.1333V3.05366L8.11879 6.06821L6.89246 4.84188L10.9788 0.75699C11.2497 0.486198 11.617 0.334076 12 0.334076C12.383 0.334076 12.7504 0.486198 13.0212 0.75699L17.1076 4.84188L15.8812 6.06821L12.8667 3.05366Z" fill="black"/>
</svg>
