<svg width="24" height="24" viewBox="0 0 24 24" fill="none" xmlns="http://www.w3.org/2000/svg">
<g clip-path="url(#clip0_50_174)">
<g clip-path="url(#clip1_50_174)">
<mask id="mask0_50_174" style="mask-type:alpha" maskUnits="userSpaceOnUse" x="0" y="0" width="24" height="24">
<path fill-rule="evenodd" clip-rule="evenodd" d="M17.0188 23.8362C17.2098 23.9106 17.4141 23.9449 17.6189 23.9371C17.8237 23.9292 18.0247 23.8793 18.2094 23.7904L23.1506 21.4127C23.4051 21.2902 23.6198 21.0984 23.7701 20.8592C23.9203 20.6201 24 20.3434 24 20.061V3.93921C24.0001 3.65677 23.9204 3.38004 23.7701 3.14088C23.6199 2.90173 23.4051 2.70985 23.1506 2.58734L18.2094 0.210027C17.9302 0.075684 17.6162 0.0314521 17.3107 0.0834525C17.0053 0.135453 16.7235 0.281114 16.5045 0.500277L7.04513 9.13015L2.92501 6.00246C2.73912 5.86142 2.50973 5.78986 2.27662 5.8002C2.04351 5.81054 1.82136 5.90213 1.64869 6.05909L0.327194 7.26115C0.224209 7.35482 0.141909 7.46895 0.0855575 7.59624C0.0292064 7.72354 4.51439e-05 7.86119 -6.07457e-05 8.0004C-0.000166635 8.13961 0.0287852 8.27731 0.0849426 8.40469C0.1411 8.53207 0.223227 8.64633 0.326069 8.74015L3.89926 12L0.326256 15.2601C0.22347 15.3539 0.141393 15.4682 0.0852702 15.5955C0.0291476 15.7229 0.000214639 15.8606 0.000320518 15.9997C0.000426397 16.1389 0.0295688 16.2765 0.0858851 16.4038C0.142201 16.5311 0.224453 16.6452 0.327381 16.7389L1.64888 17.941C1.82153 18.0979 2.04366 18.1896 2.27677 18.1999C2.50989 18.2103 2.73928 18.1388 2.92519 17.9978L7.04532 14.8703L16.5047 23.5C16.6511 23.6463 16.826 23.7608 17.0188 23.8362ZM18.0036 6.55184L10.8263 12L18.0038 17.4484L18.0036 6.55184Z" fill="white"/>
</mask>
<g mask="url(#mask0_50_174)">
<path d="M23.1508 2.59128L18.2057 0.210026C17.9264 0.0755115 17.6122 0.031186 17.3066 0.0831901C17.001 0.135194 16.7191 0.280954 16.5 0.500276L0.311621 15.2601C0.208758 15.3539 0.126612 15.4681 0.0704393 15.5955C0.0142671 15.7228 -0.014693 15.8605 -0.0145871 15.9997C-0.0144812 16.1389 0.0146883 16.2766 0.0710543 16.4039C0.12742 16.5312 0.209741 16.6453 0.312746 16.7389L1.635 17.941C1.80769 18.0981 2.02997 18.1899 2.26326 18.2003C2.49654 18.2106 2.72609 18.139 2.91206 17.9978L22.4066 3.20871C23.0606 2.71259 24 3.17909 24 3.99996V3.94259C24 3.66023 23.9203 3.3836 23.7701 3.14451C23.6199 2.90543 23.4052 2.71379 23.1508 2.59128Z" fill="#0065A9"/>
<g filter="url(#filter0_d_50_174)">
<path d="M23.1508 21.409L18.2057 23.7899C17.9264 23.9244 17.6122 23.9688 17.3066 23.9169C17.001 23.8649 16.7191 23.7192 16.5 23.5L0.311621 8.73999C0.208758 8.64619 0.126612 8.53196 0.0704393 8.40459C0.0142671 8.27723 -0.014693 8.13953 -0.0145871 8.00033C-0.0144812 7.86113 0.0146883 7.72348 0.0710543 7.5962C0.12742 7.46892 0.209741 7.35481 0.312746 7.26117L1.635 6.05911C1.80769 5.90193 2.02997 5.81019 2.26326 5.79982C2.49654 5.78944 2.72609 5.86108 2.91206 6.0023L22.4066 20.7912C23.0606 21.2875 24 20.821 24 20.0001V20.0575C24 20.3398 23.9203 20.6165 23.7701 20.8556C23.6199 21.0946 23.4052 21.2865 23.1508 21.409Z" fill="#007ACC"/>
</g>
<g filter="url(#filter1_d_50_174)">
<path d="M18.2059 23.7904C17.9265 23.9246 17.6123 23.9688 17.3067 23.9168C17.0011 23.8648 16.7192 23.7191 16.5 23.4999C17.0535 24.0534 18 23.6614 18 22.8786V1.12126C18 0.338448 17.0535 -0.0536149 16.5 0.500073C16.7192 0.28092 17.0011 0.135267 17.3067 0.0832389C17.6123 0.0312111 17.9265 0.0753775 18.2059 0.209635L23.1501 2.58751C23.4047 2.70994 23.6195 2.90178 23.7699 3.14095C23.9202 3.38011 24 3.65688 24 3.93939V20.061C24 20.3435 23.9202 20.6203 23.7699 20.8594C23.6195 21.0986 23.4047 21.2905 23.1501 21.4129L18.2059 23.7904Z" fill="#1F9CF0"/>
</g>
<path opacity="0.25" fill-rule="evenodd" clip-rule="evenodd" d="M17.0044 23.836C17.1953 23.9104 17.3996 23.9448 17.6044 23.9369C17.8092 23.929 18.0101 23.8791 18.1948 23.7903L23.136 21.4126C23.3905 21.2901 23.6052 21.0982 23.7555 20.859C23.9058 20.6199 23.9854 20.3432 23.9854 20.0607V3.93909C23.9854 3.65665 23.9058 3.37992 23.7555 3.14076C23.6052 2.9016 23.3905 2.70973 23.136 2.58722L18.1948 0.209905C17.9156 0.075562 17.6016 0.03133 17.2961 0.0833304C16.9907 0.135331 16.7089 0.280992 16.4899 0.500155L7.03051 9.13003L2.91039 6.00253C2.7245 5.86148 2.49512 5.78993 2.262 5.80027C2.02889 5.81061 1.80674 5.9022 1.63408 6.05915L0.312576 7.26122C0.209617 7.3549 0.12734 7.46904 0.0710056 7.59633C0.014671 7.72362 -0.0144812 7.86127 -0.0145871 8.00047C-0.014693 8.13967 0.0142498 8.27736 0.0703907 8.40474C0.126532 8.53212 0.208635 8.64638 0.311451 8.74022L3.88464 11.9999L0.311639 15.2598C0.208797 15.3536 0.12667 15.4679 0.0705128 15.5952C0.0143554 15.7226 -0.0145964 15.8603 -0.0144905 15.9995C-0.0143846 16.1387 0.0147766 16.2764 0.0711278 16.4037C0.127479 16.531 0.209779 16.6451 0.312764 16.7388L1.63426 17.9408C1.80691 18.0978 2.02904 18.1894 2.26216 18.1998C2.49527 18.2102 2.72467 18.1387 2.91058 17.9977L7.03089 14.87L16.4903 23.4998C16.6366 23.6462 16.8117 23.7606 17.0044 23.836ZM17.9891 6.55153L10.8116 11.9999L17.9891 17.4481V6.55153Z" fill="url(#paint0_linear_50_174)"/>
</g>
</g>
</g>
<defs>
<filter id="filter0_d_50_174" x="-1.05634" y="4.75708" width="26.0981" height="20.2227" filterUnits="userSpaceOnUse" color-interpolation-filters="sRGB">
<feFlood flood-opacity="0" result="BackgroundImageFix"/>
<feColorMatrix in="SourceAlpha" type="matrix" values="0 0 0 0 0 0 0 0 0 0 0 0 0 0 0 0 0 0 127 0" result="hardAlpha"/>
<feOffset/>
<feGaussianBlur stdDeviation="0.520875"/>
<feColorMatrix type="matrix" values="0 0 0 0 0 0 0 0 0 0 0 0 0 0 0 0 0 0 0.25 0"/>
<feBlend mode="overlay" in2="BackgroundImageFix" result="effect1_dropShadow_50_174"/>
<feBlend mode="normal" in="SourceGraphic" in2="effect1_dropShadow_50_174" result="shape"/>
</filter>
<filter id="filter1_d_50_174" x="15.4583" y="-0.979738" width="9.5835" height="25.9595" filterUnits="userSpaceOnUse" color-interpolation-filters="sRGB">
<feFlood flood-opacity="0" result="BackgroundImageFix"/>
<feColorMatrix in="SourceAlpha" type="matrix" values="0 0 0 0 0 0 0 0 0 0 0 0 0 0 0 0 0 0 127 0" result="hardAlpha"/>
<feOffset/>
<feGaussianBlur stdDeviation="0.520875"/>
<feColorMatrix type="matrix" values="0 0 0 0 0 0 0 0 0 0 0 0 0 0 0 0 0 0 0.25 0"/>
<feBlend mode="overlay" in2="BackgroundImageFix" result="effect1_dropShadow_50_174"/>
<feBlend mode="normal" in="SourceGraphic" in2="effect1_dropShadow_50_174" result="shape"/>
</filter>
<linearGradient id="paint0_linear_50_174" x1="11.9854" y1="0.0617796" x2="11.9854" y2="23.938" gradientUnits="userSpaceOnUse">
<stop stop-color="white"/>
<stop offset="1" stop-color="white" stop-opacity="0"/>
</linearGradient>
<clipPath id="clip0_50_174">
<rect width="24" height="24" fill="white"/>
</clipPath>
<clipPath id="clip1_50_174">
<rect width="24" height="24" fill="white"/>
</clipPath>
</defs>
</svg>
